# xmcd CD database file
#
# Track frame offsets:
#	150
#	13778
#	33106
#	48184
#	59972
#	70137
#	82946
#	104174
#	116127
#	137568
#	150321
#
# Disc length: 2220 seconds
#
# Revision: 0
# Processed by: cddbd v1.5.2PL0 Copyright (c) Steve Scherf et al.
# Submitted via: CDex 1.50beta10
#
DISCID=9008aa0b
DTITLE=Danny O'Brian - Memories
DYEAR=1900
DGENRE=Country
TTITLE0=Behind Close Doors
TTITLE1=Honey
TTITLE2=Suspicious Minds
TTITLE3=The Wonder Of You
TTITLE4=From Jack To A King
TTITLE5=Ramblin' Rose
TTITLE6=My Way
TTITLE7=Smoke Gets In Your Eyes
TTITLE8=Over The Rainbow
TTITLE9=Pretty Paper
TTITLE10=Unchained Melody
EXTD=
EXTT0=
EXTT1=
EXTT2=
EXTT3=
EXTT4=
EXTT5=
EXTT6=
EXTT7=
EXTT8=
EXTT9=
EXTT10=
PLAYORDER=
